# xmcd
#
# Track frame offsets:
#	150
#	17732
#	35810
#	53440
#	68034
#	87469
#	99040
#	114827
#	127357
#	140933
#
# Disc length: 2114 seconds
# Revision: 0
# Processed by: cddbd v1.5.2PL0 Copyright (c) Steve Scherf et al.
# Submitted via: dBpowerAMP V12.0
#
DISCID=8808400a
DTITLE=Jim and Lynna Woolsey - Long Ago
DYEAR=2019
DGENRE=Bluegrass
TTITLE0=Lovin' You
TTITLE1=Cradle to the Grave Blues
TTITLE2=Growing Up Takes Time
TTITLE3=Sugar Ridge Road
TTITLE4=Long Journey Home
TTITLE5=Tennessee Memories and California Wine
TTITLE6=Long Ago
TTITLE7=Livin' The Way It Used To Be
TTITLE8=Somewhere Between Californ and Caroline
TTITLE9=Without You
EXTD=
EXTT0=
EXTT1=
EXTT2=
EXTT3=
EXTT4=
EXTT5=
EXTT6=
EXTT7=
EXTT8=
EXTT9=
PLAYORDER=
